<svg xmlns="http://www.w3.org/2000/svg" viewBox="0 0 278.95 52.45"><defs><style>.cls-1{fill:#fff;}.cls-2{fill:#fed133;}</style></defs><g id="Layer_2" data-name="Layer 2"><g id="Layer_1-2" data-name="Layer 1"><path class="cls-1" d="M31.43,24.79c0,10.48-7.14,17.59-17.76,17.59H0V7.25H14.1C24.39,7.25,31.43,14.31,31.43,24.79Zm-8.73.1c0-6.05-3.69-10.25-8.87-10.25H8.48v20.3h5.79c4.94,0,8.45-4,8.45-10Z"/><path class="cls-1" d="M65,42.79a11.45,11.45,0,0,1-9.57-5.42A11.28,11.28,0,0,1,46,42.79c-6.63,0-11-4.87-11-12.14V15.27h8.2v15a4.12,4.12,0,0,0,3.59,4.58l.51,0c2.48,0,4-1.79,4-4.61V15.29h8.2v15a4.17,4.17,0,0,0,3.74,4.53,3.69,3.69,0,0,0,.47,0c2.39,0,4-1.79,4-4.61V15.29h8.21V30.67C75.89,37.92,71.55,42.79,65,42.79Z"/><path class="cls-1" d="M99.94,32.67l4.67,4.5A14.07,14.07,0,0,1,93,42.69c-8.17,0-13.67-5.47-13.67-13.68s5.12-13.93,13.16-14c7.57,0,12.56,4.9,12.75,12.92L88.35,32.33A5.47,5.47,0,0,0,93.67,36,8.57,8.57,0,0,0,99.94,32.67ZM87.76,27.32l9.33-2.5a4.16,4.16,0,0,0-4.21-3.55c-3,0-4.9,2.17-5.12,6.08Z"/><path class="cls-1" d="M119.31,35a5,5,0,0,0,2.38-.67l.7,7.32a12.77,12.77,0,0,1-4.86,1.15c-4.66,0-8.72-3.27-8.72-10.26V5.2h8.31V32.28C117.12,34.23,118,35,119.31,35Z"/><path class="cls-1" d="M135.5,35a5,5,0,0,0,2.37-.67l.7,7.35a12.32,12.32,0,0,1-4.85,1.15c-4.67,0-8.74-3.26-8.74-10.26V5.2h8.31V32.28C133.29,34.23,134.16,35,135.5,35Z"/><path class="cls-1" d="M150.4,21.15c-1.4,0-2.37.55-2.37,1.71,0,3.55,13.24,1.86,13.21,11.28,0,5.55-4.53,8.72-10.68,8.72A17.87,17.87,0,0,1,139.15,39l2.62-5.92a15.63,15.63,0,0,0,9,3.42c1.55,0,2.68-.56,2.68-1.71,0-3.71-13-1.86-13-11.23,0-5.65,4.42-8.75,10.35-8.75A19.38,19.38,0,0,1,161.24,18l-2.79,5.81A18.28,18.28,0,0,0,150.4,21.15Z"/><path class="cls-1" d="M190.79,15.29V39.58c0,7.65-5.5,12.92-13.35,12.87a22,22,0,0,1-11.38-3.56l2-6.2a17.91,17.91,0,0,0,8.41,2.66,5.68,5.68,0,0,0,6.08-5.24,5.77,5.77,0,0,0,0-.72v-3.9a8.84,8.84,0,0,1-8.13,4.6c-5.78,0-9.42-4-9.42-10.38V15.25h8.31v12c0,3.06,1.71,4.9,4.29,4.9,3.09,0,5-2.44,5-6.25V15.29Z"/><path class="cls-2" d="M271.81,38.88a24,24,0,1,0-38-.45l6.56-6.1a15.12,15.12,0,1,1,24.9.48L260.07,28a5.14,5.14,0,0,0-3.49-1.37h-10l19,17.63a4.77,4.77,0,0,0,3.23,1.27H279Z"/><rect class="cls-2" x="242.33" y="38.2" width="3.44" height="3.44"/><rect class="cls-2" x="246.72" y="38.2" width="3.44" height="3.44"/><rect class="cls-2" x="246.72" y="42.83" width="3.44" height="3.44"/><rect class="cls-2" x="242.33" y="42.83" width="3.44" height="3.44"/><path class="cls-2" d="M220.72,7.39l1.76-1.49a1,1,0,0,0-.64-1.76h-12a1,1,0,0,0-.65,1.76L211,7.39a1,1,0,0,1,.35.76V39.8a1,1,0,0,1-.35.76l-1.77,1.49a1,1,0,0,0,.65,1.76h12a1,1,0,0,0,.64-1.76l-1.76-1.49a1,1,0,0,1-.35-.76V8.15A1,1,0,0,1,220.72,7.39Z"/><polygon class="cls-2" points="207 4.14 207.14 4.14 207 4.03 207 4.14"/><polygon class="cls-2" points="224.69 4.03 224.55 4.14 224.69 4.14 224.69 4.03"/><polygon class="cls-2" points="224.69 43.81 224.55 43.81 224.69 43.92 224.69 43.81"/><polygon class="cls-2" points="207 43.92 207.14 43.81 207 43.81 207 43.92"/></g></g></svg>